<svg preserveAspectRatio="none" overflow="visible" style="display: block;" width="21" height="21" viewBox="0 0 21 21" fill="none" xmlns="http://www.w3.org/2000/svg">
<g id="Icon">
<path id="Vector" d="M18.375 10.0625C18.375 11.0392 18.1826 12.0063 17.8089 12.9087C17.4351 13.8111 16.8872 14.631 16.1966 15.3216C15.506 16.0122 14.6861 16.5601 13.7837 16.9339C12.8813 17.3076 11.9142 17.5 10.9375 17.5C9.75625 17.5 8.65375 17.22 7.67375 16.73L2.625 18.375L4.2875 13.3875C3.45985 12.4384 2.88768 11.2941 2.625 10.0625C2.625 8.08995 3.40859 6.1982 4.80339 4.80339C6.1982 3.40859 8.08995 2.625 10.0625 2.625C11.1101 2.50087 12.1721 2.60101 13.178 2.91878C14.184 3.23655 15.1108 3.76468 15.897 4.4681C16.6831 5.17152 17.3107 6.03413 17.7379 6.99867C18.1652 7.96321 18.3823 9.0076 18.375 10.0625Z" stroke="#F3EAE4" stroke-opacity="0.5" stroke-width="1.6625" stroke-linecap="round" stroke-linejoin="round"/>
</g>
</svg>
